<?xml version="1.0" encoding="UTF-8"?>
<!DOCTYPE svg PUBLIC "-//W3C//DTD SVG 1.1//EN" "http://www.w3.org/Graphics/SVG/1.1/DTD/svg11.dtd">
<svg xmlns="http://www.w3.org/2000/svg" version="1.1" width="128px" height="128px" style="shape-rendering:geometricPrecision; text-rendering:geometricPrecision; image-rendering:optimizeQuality; fill-rule:evenodd; clip-rule:evenodd" xmlns:xlink="http://www.w3.org/1999/xlink">
<g><path style="opacity:0.993" fill="#f5f5f5" d="M 53.5,-0.5 C 60.5,-0.5 67.5,-0.5 74.5,-0.5C 102.341,6.55574 120.008,23.8891 127.5,51.5C 127.5,59.5 127.5,67.5 127.5,75.5C 123.268,93.2558 113.602,107.422 98.5,118C 91.1763,122.339 83.5096,125.506 75.5,127.5C 67.8333,127.5 60.1667,127.5 52.5,127.5C 27.6965,121.534 10.8632,106.534 2,82.5C 1.30404,79.5219 0.804042,76.5219 0.5,73.5C 0.692951,67.0433 0.692951,60.3766 0.5,53.5C 3.83078,32.9944 14.4974,17.4944 32.5,7C 39.2948,3.57099 46.2948,1.07099 53.5,-0.5 Z M 73.5,55.5 C 65.8531,60.683 63.5198,67.5164 66.5,76C 71.0509,77.2148 75.7176,77.8814 80.5,78C 79.6548,79.5581 80.3215,80.5581 82.5,81C 82.1667,81.3333 81.8333,81.6667 81.5,82C 83.9568,88.9196 85.2901,96.0863 85.5,103.5C 92.059,102.942 95.7257,99.275 96.5,92.5C 97.7598,91.6184 98.9264,90.6184 100,89.5C 100.333,86.8333 100.667,84.1667 101,81.5C 103.36,78.6397 105.527,75.6397 107.5,72.5C 106.051,71.8281 104.718,71.1614 103.5,70.5C 106.479,70.0067 108.812,68.5067 110.5,66C 110.022,64.6974 109.355,63.5307 108.5,62.5C 111.811,62.9091 114.811,64.0758 117.5,66C 118.732,69.1904 120.065,72.357 121.5,75.5C 113.391,104.902 94.0576,120.569 63.5,122.5C 54.8589,122.298 46.6923,120.298 39,116.5C 38.3333,113.833 38.3333,111.167 39,108.5C 43.6615,102.839 48.6615,97.5055 54,92.5C 56.4407,88.8474 57.4407,84.8474 57,80.5C 54.8252,79.7454 52.6585,78.912 50.5,78C 44.8829,71.5062 37.8829,69.3396 29.5,71.5C 28.3049,69.703 26.6382,68.703 24.5,68.5C 24.7852,66.712 24.4519,65.0453 23.5,63.5C 21.33,67.5958 19.6633,67.4292 18.5,63C 19.1241,60.7095 20.6241,59.5428 23,59.5C 24.6991,59.3866 25.8658,60.0532 26.5,61.5C 27.6226,62.7574 28.2893,62.4241 28.5,60.5C 26.4533,58.4332 26.4533,56.5998 28.5,55C 31.5755,54.6543 34.5755,53.9876 37.5,53C 39.2898,49.13 42.2898,46.9634 46.5,46.5C 44.9156,40.6645 42.2489,35.3312 38.5,30.5C 36.936,33.1355 35.6026,32.9689 34.5,30C 32.9751,28.9914 31.3084,28.4914 29.5,28.5C 30.1362,33.0575 30.1362,37.2242 29.5,41C 29.1667,41.1667 28.8333,41.3333 28.5,41.5C 27.4514,37.3101 24.7847,34.9768 20.5,34.5C 20.747,31.495 19.747,28.995 17.5,27C 19.3333,25.1667 21.1667,23.3333 23,21.5C 23.3333,23.5 23.6667,25.5 24,27.5C 25.1131,28.7111 26.2798,28.7111 27.5,27.5C 27.9169,24.0701 28.4169,20.4034 29,16.5C 34.1979,12.1498 40.0313,9.31648 46.5,8C 43.5921,10.7066 42.9254,13.8733 44.5,17.5C 43.6171,18.548 42.9504,19.7147 42.5,21C 43.555,26.2947 46.2217,30.4614 50.5,33.5C 51.8064,32.0878 52.6397,30.4211 53,28.5C 54.8161,27.6705 56.6494,26.8372 58.5,26C 60.2112,23.4112 62.0445,20.9112 64,18.5C 63.7983,13.8593 64.965,9.69264 67.5,6C 81.7112,6.26923 94.0445,11.2692 104.5,21C 102.833,20.3333 101.167,20.3333 99.5,21C 97.3333,18.8333 95.1667,16.6667 93,14.5C 87.1183,18.8284 82.2849,23.995 78.5,30C 80.7833,31.6179 82.2833,33.7846 83,36.5C 83.7175,37.4506 84.5509,37.6172 85.5,37C 86.2106,35.7453 87.044,34.5786 88,33.5C 89.3222,35.4744 88.8222,37.3078 86.5,39C 84.5568,38.6948 82.5568,38.6948 80.5,39C 78.3749,42.2967 75.3749,44.1301 71.5,44.5C 72.3128,45.8139 73.3128,46.9805 74.5,48C 69.868,48.7646 68.5347,51.2646 70.5,55.5C 71.5,55.5 72.5,55.5 73.5,55.5 Z M 75.5,54.5 C 76.5123,52.1103 78.1789,50.4437 80.5,49.5C 82.9153,49.7189 83.9153,51.0523 83.5,53.5C 84.9305,53.5792 86.2638,53.2458 87.5,52.5C 88.5032,54.542 89.8366,54.8754 91.5,53.5C 94.1092,54.2305 96.7759,54.7305 99.5,55C 98.119,56.625 96.4523,57.7917 94.5,58.5C 88.0033,56.8256 81.67,55.4923 75.5,54.5 Z M 108.5,62.5 C 106.645,62.728 105.812,62.0613 106,60.5C 106.995,61.0659 107.828,61.7326 108.5,62.5 Z M 5.5,61.5 C 7.39245,62.7017 9.22578,64.035 11,65.5C 11.3333,64.8333 11.6667,64.1667 12,63.5C 13.1882,64.5634 13.6882,65.8967 13.5,67.5C 17.696,70.3027 22.3627,72.3027 27.5,73.5C 28.2282,76.8019 28.3949,80.1352 28,83.5C 30.793,86.4532 32.9597,89.7865 34.5,93.5C 33.3024,100.267 32.4691,106.934 32,113.5C 13.7294,100.622 4.89607,83.2886 5.5,61.5 Z M 103.5,70.5 C 102.178,70.67 101.011,70.3366 100,69.5C 99.1628,67.6494 98.3295,65.8161 97.5,64C 98.3317,63.3123 98.9984,63.479 99.5,64.5C 99.937,67.225 101.27,69.225 103.5,70.5 Z"/></g>
<g><path style="opacity:0.415" fill="#a7a7a7" d="M -0.5,53.5 C -0.166667,53.5 0.166667,53.5 0.5,53.5C 0.692951,60.3766 0.692951,67.0433 0.5,73.5C 0.166667,73.5 -0.166667,73.5 -0.5,73.5C -0.5,66.8333 -0.5,60.1667 -0.5,53.5 Z"/></g>
<g><path style="opacity:0.018" fill="#040404" d="M 28.5,60.5 C 28.2893,62.4241 27.6226,62.7574 26.5,61.5C 27.1667,61.1667 27.8333,60.8333 28.5,60.5 Z"/></g>
<g><path style="opacity:0.839" fill="#dcdcdc" d="M 108.5,86.5 C 107.833,86.5 107.167,86.5 106.5,86.5C 106.248,83.6802 106.748,81.0135 108,78.5C 109.011,77.6634 110.178,77.33 111.5,77.5C 111.253,80.8539 110.253,83.8539 108.5,86.5 Z"/></g>
<g><path style="opacity:0.02" fill="#000000" d="M 106.5,86.5 C 107.167,86.5 107.833,86.5 108.5,86.5C 107.833,89.1667 107.167,89.1667 106.5,86.5 Z"/></g>
</svg>
