<?xml version="1.0" encoding="UTF-8"?>
<!DOCTYPE svg PUBLIC "-//W3C//DTD SVG 1.1//EN" "http://www.w3.org/Graphics/SVG/1.1/DTD/svg11.dtd">
<svg xmlns="http://www.w3.org/2000/svg" version="1.1" width="128px" height="128px" style="shape-rendering:geometricPrecision; text-rendering:geometricPrecision; image-rendering:optimizeQuality; fill-rule:evenodd; clip-rule:evenodd" xmlns:xlink="http://www.w3.org/1999/xlink">
<g><path style="opacity:0.969" fill="#2e3837" d="M 85.5,74.5 C 84.3716,70.9099 82.705,67.5766 80.5,64.5C 69.128,60.8475 62.4613,64.8475 60.5,76.5C 58.4024,71.8417 55.9024,71.5084 53,75.5C 51.5789,79.4302 52.7455,82.0968 56.5,83.5C 57.4519,85.0453 57.7852,86.712 57.5,88.5C 52.4686,90.7666 47.6353,93.4332 43,96.5C 42.5,96.1667 42,95.8333 41.5,95.5C 42.6084,91.8878 43.9417,88.3878 45.5,85C 41.0566,84.4725 36.7232,83.4725 32.5,82C 29.4094,81.309 28.2428,79.4757 29,76.5C 33.597,77.5873 38.097,77.0873 42.5,75C 41.5838,74.6258 40.7504,74.1258 40,73.5C 38,69.5 36,65.5 34,61.5C 33.1786,58.4459 33.3452,55.4459 34.5,52.5C 35.6744,56.6828 38.341,59.6828 42.5,61.5C 44.7104,56.0769 47.2104,50.7435 50,45.5C 53.7112,40.7932 57.7112,36.4599 62,32.5C 62.5,32.8333 63,33.1667 63.5,33.5C 61.4067,37.3421 61.0734,41.3421 62.5,45.5C 64.69,43.1443 66.69,40.6443 68.5,38C 69.635,37.2506 70.635,37.4173 71.5,38.5C 70.3595,40.0778 69.8595,41.7445 70,43.5C 76.5897,36.6232 84.423,32.6232 93.5,31.5C 88.7385,35.6096 85.0718,40.6096 82.5,46.5C 87.2335,47.1481 91.7335,48.4815 96,50.5C 96.1667,50.8333 96.3333,51.1667 96.5,51.5C 94.5159,52.7059 92.5159,52.7059 90.5,51.5C 89.2054,52.0983 87.8721,52.5983 86.5,53C 90.4018,54.0203 94.0685,55.5203 97.5,57.5C 93.9013,59.6384 90.2346,61.8051 86.5,64C 89.8055,67.3173 93.4722,70.1506 97.5,72.5C 98.3857,73.325 98.719,74.325 98.5,75.5C 94.275,75.594 89.9416,75.2607 85.5,74.5 Z"/></g>
<g><path style="opacity:0.92" fill="#e2ebea" d="M 85.5,74.5 C 84.3054,74.8656 83.6387,75.699 83.5,77C 84.2064,79.6195 85.2064,82.1195 86.5,84.5C 84.8413,85.9981 83.1747,87.4981 81.5,89C 80.9371,91.7266 80.2705,94.3933 79.5,97C 73.0263,97.135 66.6929,96.135 60.5,94C 58.6603,92.1372 57.6603,90.3038 57.5,88.5C 57.7852,86.712 57.4519,85.0453 56.5,83.5C 52.7455,82.0968 51.5789,79.4302 53,75.5C 55.9024,71.5084 58.4024,71.8417 60.5,76.5C 62.4613,64.8475 69.128,60.8475 80.5,64.5C 82.705,67.5766 84.3716,70.9099 85.5,74.5 Z"/></g>
<g><path style="opacity:1" fill="#1f2726" d="M 74.5,75.5 C 76.6055,74.1811 78.6055,74.5144 80.5,76.5C 79.8551,77.646 79.0217,78.646 78,79.5C 77.0513,77.9069 75.8846,76.5736 74.5,75.5 Z"/></g>
</svg>
